<svg id="visual" viewBox="0 0 900 250" width="900" height="250" xmlns="http://www.w3.org/2000/svg" xmlns:xlink="http://www.w3.org/1999/xlink" version="1.1"><path d="M0 54L16.7 53.7C33.3 53.3 66.7 52.7 100 55.2C133.3 57.7 166.7 63.3 200 70.8C233.3 78.3 266.7 87.7 300 83.3C333.3 79 366.7 61 400 61.7C433.3 62.3 466.7 81.7 500 87.5C533.3 93.3 566.7 85.7 600 79C633.3 72.3 666.7 66.7 700 68.2C733.3 69.7 766.7 78.3 800 77.7C833.3 77 866.7 67 883.3 62L900 57L900 251L883.3 251C866.7 251 833.3 251 800 251C766.7 251 733.3 251 700 251C666.7 251 633.3 251 600 251C566.7 251 533.3 251 500 251C466.7 251 433.3 251 400 251C366.7 251 333.3 251 300 251C266.7 251 233.3 251 200 251C166.7 251 133.3 251 100 251C66.7 251 33.3 251 16.7 251L0 251Z" fill="#85f3d8"></path><path d="M0 119L16.7 115.7C33.3 112.3 66.7 105.7 100 104.3C133.3 103 166.7 107 200 103.8C233.3 100.7 266.7 90.3 300 85.7C333.3 81 366.7 82 400 85.2C433.3 88.3 466.7 93.7 500 91.2C533.3 88.7 566.7 78.3 600 74.7C633.3 71 666.7 74 700 82.5C733.3 91 766.7 105 800 106C833.3 107 866.7 95 883.3 89L900 83L900 251L883.3 251C866.7 251 833.3 251 800 251C766.7 251 733.3 251 700 251C666.7 251 633.3 251 600 251C566.7 251 533.3 251 500 251C466.7 251 433.3 251 400 251C366.7 251 333.3 251 300 251C266.7 251 233.3 251 200 251C166.7 251 133.3 251 100 251C66.7 251 33.3 251 16.7 251L0 251Z" fill="#7feed2"></path><path d="M0 154L16.7 150.5C33.3 147 66.7 140 100 135.7C133.3 131.3 166.7 129.7 200 132.8C233.3 136 266.7 144 300 144.8C333.3 145.7 366.7 139.3 400 140C433.3 140.7 466.7 148.3 500 150.3C533.3 152.3 566.7 148.7 600 141.5C633.3 134.3 666.7 123.7 700 119.3C733.3 115 766.7 117 800 119.8C833.3 122.7 866.7 126.3 883.3 128.2L900 130L900 251L883.3 251C866.7 251 833.3 251 800 251C766.7 251 733.3 251 700 251C666.7 251 633.3 251 600 251C566.7 251 533.3 251 500 251C466.7 251 433.3 251 400 251C366.7 251 333.3 251 300 251C266.7 251 233.3 251 200 251C166.7 251 133.3 251 100 251C66.7 251 33.3 251 16.7 251L0 251Z" fill="#79e9cd"></path><path d="M0 175L16.7 176C33.3 177 66.7 179 100 175.2C133.3 171.3 166.7 161.7 200 158.7C233.3 155.7 266.7 159.3 300 159.5C333.3 159.7 366.7 156.3 400 156.3C433.3 156.3 466.7 159.7 500 156.8C533.3 154 566.7 145 600 146.2C633.3 147.3 666.7 158.7 700 159.2C733.3 159.7 766.7 149.3 800 144C833.3 138.7 866.7 138.3 883.3 138.2L900 138L900 251L883.3 251C866.7 251 833.3 251 800 251C766.7 251 733.3 251 700 251C666.7 251 633.3 251 600 251C566.7 251 533.3 251 500 251C466.7 251 433.3 251 400 251C366.7 251 333.3 251 300 251C266.7 251 233.3 251 200 251C166.7 251 133.3 251 100 251C66.7 251 33.3 251 16.7 251L0 251Z" fill="#73e4c7"></path><path d="M0 171L16.7 172.2C33.3 173.3 66.7 175.7 100 181.5C133.3 187.3 166.7 196.7 200 201C233.3 205.3 266.7 204.7 300 201.5C333.3 198.3 366.7 192.7 400 186.8C433.3 181 466.7 175 500 174.2C533.3 173.3 566.7 177.7 600 179.8C633.3 182 666.7 182 700 180.5C733.3 179 766.7 176 800 173.2C833.3 170.3 866.7 167.7 883.3 166.3L900 165L900 251L883.3 251C866.7 251 833.3 251 800 251C766.7 251 733.3 251 700 251C666.7 251 633.3 251 600 251C566.7 251 533.3 251 500 251C466.7 251 433.3 251 400 251C366.7 251 333.3 251 300 251C266.7 251 233.3 251 200 251C166.7 251 133.3 251 100 251C66.7 251 33.3 251 16.7 251L0 251Z" fill="#6cdfc2"></path><path d="M0 230L16.7 228.7C33.3 227.3 66.7 224.7 100 221.5C133.3 218.3 166.7 214.7 200 210.8C233.3 207 266.7 203 300 200.8C333.3 198.7 366.7 198.3 400 201C433.3 203.7 466.7 209.3 500 211.7C533.3 214 566.7 213 600 215C633.3 217 666.7 222 700 222.8C733.3 223.7 766.7 220.3 800 217.8C833.3 215.3 866.7 213.7 883.3 212.8L900 212L900 251L883.3 251C866.7 251 833.3 251 800 251C766.7 251 733.3 251 700 251C666.7 251 633.3 251 600 251C566.7 251 533.3 251 500 251C466.7 251 433.3 251 400 251C366.7 251 333.3 251 300 251C266.7 251 233.3 251 200 251C166.7 251 133.3 251 100 251C66.7 251 33.3 251 16.7 251L0 251Z" fill="#66dabd"></path></svg>